<?xml version="1.0" encoding="UTF-8" standalone="no"?>
<!-- Created with Inkscape (http://www.inkscape.org/) -->

<svg
   width="135.46666mm"
   height="135.46666mm"
   viewBox="0 0 135.46666 135.46666"
   version="1.1"
   id="svg5"
   sodipodi:docname="BeReal 2020 (App Icon).svg"
   inkscape:version="1.1.2 (b8e25be833, 2022-02-05)"
   xmlns:inkscape="http://www.inkscape.org/namespaces/inkscape"
   xmlns:sodipodi="http://sodipodi.sourceforge.net/DTD/sodipodi-0.dtd"
   xmlns="http://www.w3.org/2000/svg"
   xmlns:svg="http://www.w3.org/2000/svg">
  <sodipodi:namedview
     id="namedview7"
     pagecolor="#ffffff"
     bordercolor="#666666"
     borderopacity="1.0"
     inkscape:pageshadow="2"
     inkscape:pageopacity="0.0"
     inkscape:pagecheckerboard="0"
     inkscape:document-units="mm"
     showgrid="false"
     inkscape:zoom="0.64052329"
     inkscape:cx="-17.95407"
     inkscape:cy="174.85703"
     inkscape:window-width="1920"
     inkscape:window-height="1017"
     inkscape:window-x="-8"
     inkscape:window-y="-8"
     inkscape:window-maximized="1"
     inkscape:current-layer="layer1" />
  <defs
     id="defs2" />
  <g
     inkscape:label="Layer 1"
     inkscape:groupmode="layer"
     id="layer1"
     transform="translate(-47.101162,-33.263195)">
    <rect
       style="fill:#000000;fill-opacity:1;stroke-width:0;paint-order:stroke markers fill"
       id="rect1165"
       width="135.46666"
       height="135.46666"
       x="47.101162"
       y="33.263195" />
    <g
       id="g928"
       transform="matrix(0.49669253,0,0,0.49669253,63.141711,41.925539)"
       style="fill:#ffffff;fill-opacity:1">
      <path
         id="path876"
         style="fill:#ffffff;fill-opacity:1;stroke:none;stroke-width:0.264583px;stroke-linecap:butt;stroke-linejoin:miter;stroke-opacity:1"
         d="m 54.240767,109.78882 c -4.956646,0 -8.729009,1.52066 -11.403634,3.97135 -3.679526,3.37145 -5.354937,7.90299 -5.354937,13.70706 0,5.42706 1.691725,9.87877 5.524664,13.25006 2.842636,2.50026 7.115808,4.17988 12.723223,4.17988 4.121814,0 8.943067,-1.17184 11.588117,-3.43183 l -2.625989,-6.52444 c -2.791767,1.29028 -5.133454,2.34812 -8.312555,2.35612 -4.164801,0.0109 -8.285948,-1.97478 -9.379339,-7.25726 h 22.511014 v -2.89138 c 0,-4.19949 -1.128657,-8.9693 -4.021119,-12.64283 -2.530596,-3.21394 -6.126776,-4.71673 -11.249445,-4.71673 z m -0.08113,7.71393 c 4.870011,0 6.583561,4.45683 6.771259,6.55372 H 47.080221 c 0.838803,-4.49013 3.556961,-6.55372 7.079414,-6.55372 z"
         sodipodi:nodetypes="scscscccccscssccs" />
      <path
         id="path881"
         style="fill:#ffffff;fill-opacity:1;stroke:none;stroke-width:0.264583px;stroke-linecap:butt;stroke-linejoin:miter;stroke-opacity:1"
         d="m 134.08835,109.78882 c -4.95665,0 -8.72901,1.52066 -11.40363,3.97135 -3.67953,3.37145 -5.35494,7.90299 -5.35494,13.70706 0,5.42706 1.69172,9.87877 5.52466,13.25006 2.84264,2.50026 7.11581,4.17988 12.72323,4.17988 4.12181,0 8.94306,-1.17184 11.58811,-3.43183 l -2.62599,-6.52444 c -2.79176,1.29028 -5.13345,2.34812 -8.31255,2.35612 -4.1648,0.0109 -8.28595,-1.97478 -9.37934,-7.25726 h 22.51101 v -2.89138 c 0,-4.19949 -1.12867,-8.9693 -4.02113,-12.64283 -2.5306,-3.21394 -6.12676,-4.71673 -11.24943,-4.71673 z m -0.0811,7.71393 c 4.87001,0 6.58356,4.45683 6.77126,6.55372 h -13.85068 c 0.83881,-4.49013 3.55697,-6.55372 7.07942,-6.55372 z"
         sodipodi:nodetypes="scscscccccscssccs" />
      <path
         id="path883"
         style="fill:#ffffff;fill-opacity:1;fill-rule:evenodd;stroke-width:179.563;paint-order:stroke fill markers"
         d="M 0.86914062,1.114 V 177.902 H 77.298828 c 28.019362,0 58.694172,-15.20847 58.694172,-51.21645 0,-12.52724 -3.14374,-22.81197 -10.60935,-31.57235 -4.05686,-4.760443 -9.41958,-9.432558 -16.30943,-13.046199 9.0009,-8.0688 15.97078,-16.515368 15.97078,-32.877548 0,-13.146179 -3.34586,-23.520892 -10.0118,-31.318359 C 108.36727,10.073622 92.882069,1.1799192 69.677734,1.114 Z M 34.577,29.669 h 29.185001 c 23.041086,0 25.358614,13.174649 25.358614,20.982001 0,19.057479 -17.003043,22.415 -29.112614,22.415 H 34.577 Z m 0,71.126 h 39.719875 c 12.825944,0 26.189455,6.76618 26.189455,25.89055 0,17.47925 -16.83932,23.33593 -27.763674,23.33593 H 34.577 Z"
         transform="matrix(0.26458333,0,0,0.26458333,-4.535717,97.007591)"
         sodipodi:nodetypes="cccsccsccccssscccssscc" />
      <path
         id="path885"
         style="fill:#ffffff;fill-opacity:1;fill-rule:evenodd;stroke-width:47.5094;paint-order:stroke fill markers"
         d="m 77.283787,97.302147 v 46.775433 h 8.891963 v -17.7462 h 6.126242 c 0.717608,0 1.453605,-0.0352 2.198314,-0.1049 l 9.950304,17.8511 h 9.42733 l -11.41946,-20.06079 c 4.50139,-2.25295 8.00364,-6.24948 8.00364,-12.42559 0,-3.83452 -1.10437,-6.76799 -3.25509,-9.01651 -3.86147,-4.037051 -10.541194,-5.272543 -14.279754,-5.272543 z m 8.891963,7.502383 h 6.35 c 2.60972,0 5.826622,1.00091 7.210411,2.88768 0.802519,1.09421 1.228349,2.54132 1.228349,4.4018 0,1.90732 -0.55438,3.31781 -1.41025,4.3217 -1.755674,2.05932 -5.451829,2.65639 -7.781954,2.64531 H 86.17575 Z"
         sodipodi:nodetypes="ccccsccccscsccscscccc" />
      <path
         id="path899"
         style="fill:#ffffff;fill-opacity:1;stroke:none;stroke-width:0.264583px;stroke-linecap:butt;stroke-linejoin:miter;stroke-opacity:1"
         d="m 168.82208,110.16493 c -10.14933,0 -14.47353,5.94881 -14.47353,10.91509 h 8.34109 c 0.18953,-2.12013 2.38876,-4.12834 5.903,-4.12068 3.20101,0.007 5.49631,1.78242 5.49631,4.58835 v 2.46342 c -8.47925,0.5167 -14.04148,0.34008 -17.8692,3.39101 -2.12235,1.69165 -3.41478,3.77509 -3.41478,7.20628 0,5.83431 4.67944,10.02987 11.21637,10.02987 4.03696,0 8.16579,-1.8144 10.06399,-5.51645 h 0.1664 v 4.95576 h 8.82013 v -22.74151 c 0,-6.1923 -4.74922,-11.17114 -14.24978,-11.17114 z m 5.26687,19.33402 v 2.92302 c 0,3.22807 -3.60823,5.74376 -7.07606,5.68626 -3.02643,-0.0502 -5.17177,-1.54737 -5.17177,-4.03251 0,-1.12558 0.4538,-1.87879 1.17195,-2.59695 1.92366,-1.92366 5.22523,-1.4761 11.07588,-1.97982 z"
         sodipodi:nodetypes="sccssccssccccsscssscc" />
      <path
         id="rect914"
         style="fill:#ffffff;fill-opacity:1;fill-rule:evenodd;stroke:none;stroke-width:21.4481;paint-order:stroke fill markers"
         d="m 189.36903,97.302338 h 9.44748 v 46.775152 h -9.44748 z" />
      <path
         id="rect916"
         style="fill:#ffffff;fill-opacity:1;fill-rule:evenodd;stroke:none;stroke-width:19.5391;paint-order:stroke fill markers"
         d="m 202.98745,134.638 h 8.75691 v 9.43949 h -8.75691 z" />
    </g>
  </g>
</svg>
